<svg width="102" height="97" viewBox="0 0 102 97" fill="none" xmlns="http://www.w3.org/2000/svg">
<path d="M68.3879 59.7427L84.6406 69.057V87.6857L68.3879 97L52.1352 87.6857V69.057L68.3879 59.7427Z" fill="#090909"/>
<path d="M33.669 59.7427L49.9217 69.057V87.6857L33.669 97L17.4164 87.6857V69.057L33.669 59.7427Z" fill="#090909"/>
<path d="M33.6087 0L49.8614 9.31434V27.943L33.6087 37.2573L17.356 27.943V9.31434L33.6087 0Z" fill="#090909"/>
<path d="M85.7473 29.8484L102 39.1628V57.7914L85.7473 67.1058L69.4947 57.7914V39.1628L85.7473 29.8484Z" fill="#090909"/>
<path d="M51.0285 29.8484L67.2811 39.1628V57.7914L51.0285 67.1058L34.7758 57.7914V39.1628L51.0285 29.8484Z" fill="#090909"/>
<path d="M16.2527 29.8621L32.5054 39.1764V57.8051L16.2527 67.1195L0 57.8051V39.1764L16.2527 29.8621Z" fill="#090909"/>
<path d="M68.3014 69.4638L70.3238 72.9657L70.5462 73.3694L69.2698 77.947C68.9965 78.95 69.6348 79.7043 70.4481 80.8454C73.9835 85.6376 75.3594 87.9173 74.8879 90.6226C72.292 89.6752 70.9909 87.3526 68.5777 81.9173C67.9888 80.6476 67.6498 79.7217 66.6381 79.4552L62.0061 78.2636L61.7798 77.8744L59.7412 74.3696C58.48 73.6145 57.6673 71.629 56.4902 69.7849L56.9241 69.5362L57.3062 69.3172L57.8157 69.0252L58.2211 68.7929L58.6389 68.5534L59.0894 68.2953L60.3207 67.5897L60.7665 67.3342L61.1911 67.0908L61.5434 66.8794L61.5475 66.8866L62.0547 66.5959L62.8894 66.1176L63.7815 65.6063L65.0389 64.8856L65.9038 64.39C65.9038 64.39 68.0395 67.493 68.3014 69.4638Z" fill="#090909"/>
<path d="M33.502 17.9648L38.9709 8.56226L38.742 7.45836L40.2093 6.24585L40.9437 6.66672L40.6195 8.53438L39.542 8.88953L34.0731 18.2921L34.5421 19.3079C35.2002 19.7955 34.7562 20.949 34.1213 21.3491C33.2287 21.8194 32.3737 23.5821 32.2539 24.6915C31.9756 26.0411 30.2403 29.2478 29.0213 30.4426C28.7654 30.6934 28.5323 30.8555 28.3401 30.8932C27.1519 31.3382 25.5702 30.3559 25.3746 29.1937C25.3115 29.0097 25.3364 28.7282 25.4272 28.3828C25.8601 26.7375 27.7901 23.6424 28.8285 22.7284C29.7364 22.0707 30.8468 20.4543 30.8108 19.4519C30.8424 18.706 31.6268 17.7476 32.3813 18.0696L33.502 17.9648Z" fill="white"/>
<path d="M27.8381 66.5009L37.8092 75.0057C38.2853 75.3342 39.0155 76.1608 38.1275 76.8395L34.9204 78.6774L35.1855 79.418C37.488 81.4828 40.5949 86.0962 41.516 88.8589C41.9386 90.1266 40.0727 91.3565 39.0087 90.1396C37.1284 87.989 34.6223 83.2293 33.8479 80.1845L33.3835 79.5583L30.1765 81.3963C29.1403 81.8203 28.7842 80.7793 28.7357 80.2058L26.3012 67.3818C26.2321 66.7452 26.4428 65.6779 27.8381 66.5009Z" fill="white"/>
<path d="M52.653 34.2743C53.4845 33.34 54.5053 34.1266 54.5099 34.684C54.5443 35.2139 55.6009 36.0234 56.0813 35.8113C56.6959 35.54 57.1423 35.8526 57.6664 36.1684C60.2195 37.7294 61.3966 40.6147 60.7289 43.1124C59.8925 38.7169 57.8409 38.9771 56.9197 39.6566L51.8603 48.016L52.1576 48.72L45.1764 60.5423C43.7506 60.9744 43.0435 59.7017 42.8683 59.0113C42.3639 57.9311 42.9689 56.6747 43.9476 56.9753L49.6241 47.2159L50.3069 47.1257L55.2648 38.6879C55.1695 38.0664 54.998 36.9954 53.52 37.0229C52.6836 37.0385 51.7033 36.7602 51.8613 35.9745C51.9608 35.4339 52.4373 34.5166 52.653 34.2743Z" fill="#090909"/>
</svg>
