<svg width="89" height="86" viewBox="0 0 89 86" fill="none" xmlns="http://www.w3.org/2000/svg">
<path d="M59.2774 53.016L73.3238 61.1257V77.3451L59.2774 85.4548L45.231 77.3451V61.1257L59.2774 53.016Z" fill="black"/>
<path d="M29.2716 53.016L43.318 61.1257V77.3451L29.2716 85.4548L15.2252 77.3451V61.1257L29.2716 53.016Z" fill="#FFC700"/>
<path d="M74.2804 26.9881L88.3268 35.0978V51.3172L74.2804 59.4269L60.234 51.3172V35.0978L74.2804 26.9881Z" fill="#FFC700"/>
<path d="M44.2745 26.9881L58.3209 35.0978V51.3172L44.2745 59.4269L30.2281 51.3172V35.0978L44.2745 26.9881Z" fill="black"/>
<path d="M15.1126 9.04641L29.159 0.936707L43.2054 9.04641V25.2658L29.159 33.3755L15.1126 25.2658L15.1126 9.04641Z" fill="#FFC700"/>
<path d="M0.109712 35.0323L14.1561 26.9226L28.2025 35.0323L28.2025 51.2517L14.1561 59.3614L0.109711 51.2517L0.109712 35.0323Z" fill="black"/>
<path d="M53.5662 68.8028L60.9505 64.529M53.5662 68.8028L51.8044 65.7513M53.5662 68.8028L53.7619 69.1417L57.7651 70.1792C58.6394 70.4112 58.9324 71.2173 59.4414 72.3228C61.527 77.0552 62.6514 79.0774 64.895 79.9022C65.3025 77.5468 64.1134 75.5619 61.0578 71.3895C60.3549 70.3961 59.8033 69.7393 60.0395 68.866L61.1427 64.8804L60.9505 64.529M60.9505 64.529C60.9505 64.529 59.8852 62.6707 59.2026 61.48M59.2026 61.48C56.3134 63.148 51.8044 65.7513 51.8044 65.7513M59.2026 61.48C58.9762 59.764 57.1305 57.0623 57.1305 57.0623L56.383 57.4939M51.8044 65.7513C50.7144 65.0939 50.012 63.3652 48.9948 61.7595L49.3697 61.543M58.03 60.2729L56.383 57.4939M56.1386 57.0815L56.383 57.4939M55.2541 58.0494L55.2962 58.1214M57.0543 61.125L55.2962 58.1214M54.2334 58.0611L54.5252 58.5665M54.6502 58.7831L54.5252 58.5665M53.5204 58.5209L53.8039 58.9829M53.9347 59.1962L53.8039 58.9829M54.5493 61.3199L53.3655 59.236M53.0574 59.4139L53.568 60.2982M53.0574 59.4139L53.362 59.2298L53.3655 59.236M53.0574 59.4139L52.6905 59.6257M52.4092 59.1384L52.6905 59.6257M52.8364 59.8784L52.6905 59.6257M52.1176 59.5233L52.3052 59.8482M52.4303 60.0648L52.3052 59.8482M51.0223 60.0836L51.2411 60.4626M52.7624 63.0976L51.2411 60.4626M50.504 60.1181L50.8518 60.6873M50.9496 60.8474L50.8518 60.6873M50.2909 60.554L50.4907 60.8958M52.3203 64.0266L50.4907 60.8958M50.0673 60.9718L50.1403 61.0981M51.0468 62.6683L50.1403 61.0981M49.4603 60.9372L49.6999 61.3523M49.8041 61.5328L49.6999 61.3523M49.0467 60.9835L49.3697 61.543M49.4426 61.6694L49.3697 61.543M56.383 57.4939L55.2962 58.1214M55.2962 58.1214L54.5252 58.5665M54.5252 58.5665L53.8039 58.9829M53.8039 58.9829L53.3655 59.236M52.6905 59.6257L52.3052 59.8482M52.3052 59.8482L51.2411 60.4626M51.2411 60.4626L50.8518 60.6873M50.8518 60.6873L50.4907 60.8958M50.4907 60.8958L50.1403 61.0981M50.1403 61.0981L49.6999 61.3523M49.6999 61.3523L49.3697 61.543M63.2197 76.9259C63.7887 76.5603 64.2417 77.4297 63.6971 77.7528C63.1526 78.0759 62.6508 77.2916 63.2197 76.9259Z" stroke="#F5F5F5"/>
<path d="M29.1273 16.6414L33.8537 8.45489L33.6559 7.49376L34.9241 6.43806L35.5588 6.8045L35.2786 8.43062L34.3473 8.73983L29.6208 16.9264M29.1273 16.6414L28.1586 16.7326M29.1273 16.6414L29.6208 16.9264M28.1586 16.7326C27.5066 16.4523 26.8287 17.2867 26.8014 17.9362C26.8325 18.809 25.8728 20.2163 25.0881 20.7889C24.1907 21.5847 22.5227 24.2795 22.1486 25.712M28.1586 16.7326L30.0261 17.8108M29.6208 16.9264L30.0261 17.8108M30.0261 17.8108C30.5949 18.2353 30.2112 19.2396 29.6624 19.588C28.8911 19.9975 28.1521 21.5322 28.0485 22.4981C27.8081 23.6732 26.3083 26.4652 25.2547 27.5054M22.1486 25.712C22.0701 26.0127 22.0485 26.2578 22.1031 26.418C22.2722 27.4299 23.6392 28.2852 24.6661 27.8977C24.8321 27.8649 25.0336 27.7237 25.2547 27.5054M22.1486 25.712C22.622 25.5533 25.1688 27.0189 25.2547 27.5054" stroke="black"/>
<path d="M30.3531 69.502L33.1248 67.9017C33.8923 67.3108 33.2612 66.5911 32.8497 66.3051C32.8497 66.3051 27.5975 61.792 24.2322 58.9003C23.0263 58.1837 22.8442 59.113 22.9039 59.6672L25.008 70.8327C25.0499 71.332 25.3576 72.2384 26.2531 71.8692L29.0248 70.2689M30.3531 69.502C30.1202 69.2053 29.487 68.4499 28.8172 67.8018C28.1965 67.495 28.2274 67.8652 28.3204 68.0887C28.5468 68.9928 28.8843 69.9189 29.0248 70.2689M30.3531 69.502L30.5822 70.1467M29.0248 70.2689L29.4262 70.8142M29.4262 70.8142L30.5822 70.1467M29.4262 70.8142C30.0954 73.4651 32.2614 77.6093 33.8864 79.4817C34.806 80.5413 36.4186 79.4704 36.0533 78.3667C35.2573 75.9612 32.5722 71.9445 30.5822 70.1467M34.4497 78.0232C33.852 78.3229 34.3141 79.2802 35.0189 79.0092C35.6462 78.7681 35.1689 77.6986 34.4497 78.0232Z" stroke="black"/>
<path d="M43.6507 42.0309L47.9357 34.6843C47.8533 34.1432 47.7051 33.2107 46.4277 33.2347C45.7048 33.2483 44.8576 33.0059 44.9942 32.3218C45.0801 31.8512 45.492 31.0525 45.6784 30.8415C46.3971 30.0281 47.2793 30.713 47.2832 31.1983C47.3129 31.6597 48.2262 32.3644 48.6413 32.1798C49.1725 31.9436 49.5583 32.2157 50.0112 32.4907C52.2177 33.8498 53.2351 36.362 52.658 38.5366C51.9352 34.7096 50.1621 34.9361 49.3659 35.5278L44.9933 42.806M43.6507 42.0309C44.1505 42.1627 44.5324 42.3832 44.9933 42.806M43.6507 42.0309L43.0606 42.1094L38.1548 50.6066M44.9933 42.806L45.2503 43.4189L39.2168 53.7123C37.9845 54.0885 37.3734 52.9804 37.2219 52.3793C36.7861 51.4388 37.3089 50.3449 38.1548 50.6066M38.1548 50.6066C38.4654 50.8011 39.0026 51.3046 38.6656 51.7626" stroke="#F5F5F5"/>
</svg>
