<svg width="51" height="51" viewBox="0 0 51 51" fill="none" xmlns="http://www.w3.org/2000/svg">
<path d="M25.1366 50.6918C33.4372 50.6918 40.7929 46.6465 45.3399 40.4198C40.7929 34.1931 33.4372 30.1478 25.1366 30.1478C16.836 30.1478 9.48028 34.1931 4.93332 40.4198C9.48028 46.6465 16.836 50.6918 25.1366 50.6918Z" fill="#FFDC62"/>
<path d="M25.1366 30.1478C30.6594 30.1478 35.1366 25.6706 35.1366 20.1478C35.1366 14.6249 30.6594 10.1478 25.1366 10.1478C19.6137 10.1478 15.1366 14.6249 15.1366 20.1478C15.1366 25.6706 19.6137 30.1478 25.1366 30.1478Z" fill="#FFDC62"/>
<path d="M25.1366 0.691772C11.3295 0.691772 0.136597 11.8847 0.136597 25.6918C0.136597 31.1983 1.9169 36.2891 4.93332 40.4198C9.48028 34.1931 16.836 30.1478 25.1366 30.1478C19.6137 30.1478 15.1366 25.6706 15.1366 20.1478C15.1366 14.6249 19.6137 10.1478 25.1366 10.1478C30.6594 10.1478 35.1366 14.6249 35.1366 20.1478C35.1366 25.6706 30.6594 30.1478 25.1366 30.1478C33.4372 30.1478 40.7929 34.1931 45.3399 40.4198C48.3563 36.2891 50.1366 31.1983 50.1366 25.6918C50.1366 11.8847 38.9437 0.691772 25.1366 0.691772Z" fill="#CA9D00"/>
</svg>
